<svg width="80" height="80" viewBox="0 0 80 80" fill="none" xmlns="http://www.w3.org/2000/svg">
<circle cx="40" cy="40" r="37.5" stroke="#2FAC66" stroke-width="5"/>
<path d="M31.9825 50.372C35.0305 47.924 37.4185 45.92 39.1465 44.36C40.8745 42.776 42.3265 41.132 43.5025 39.428C44.7025 37.7 45.3025 36.008 45.3025 34.352C45.3025 32.792 44.9185 31.568 44.1505 30.68C43.4065 29.768 42.1945 29.312 40.5145 29.312C38.8825 29.312 37.6105 29.828 36.6985 30.86C35.8105 31.868 35.3305 33.224 35.2585 34.928H32.0905C32.1865 32.24 33.0025 30.164 34.5385 28.7C36.0745 27.236 38.0545 26.504 40.4785 26.504C42.9505 26.504 44.9065 27.188 46.3465 28.556C47.8105 29.924 48.5425 31.808 48.5425 34.208C48.5425 36.2 47.9425 38.144 46.7425 40.04C45.5665 41.912 44.2225 43.568 42.7105 45.008C41.1985 46.424 39.2665 48.08 36.9145 49.976H49.2985V52.712H31.9825V50.372Z" fill="#2FAC66"/>
</svg>
