<svg width="80" height="80" viewBox="0 0 80 80" fill="none" xmlns="http://www.w3.org/2000/svg">
<circle cx="40" cy="40" r="37.5" stroke="#2FAC66" stroke-width="5"/>
<path d="M31.5604 33.524C31.7284 31.316 32.5804 29.588 34.1164 28.34C35.6524 27.092 37.6444 26.468 40.0924 26.468C41.7244 26.468 43.1284 26.768 44.3044 27.368C45.5044 27.944 46.4044 28.736 47.0044 29.744C47.6284 30.752 47.9404 31.892 47.9404 33.164C47.9404 34.652 47.5084 35.936 46.6444 37.016C45.8044 38.096 44.7004 38.792 43.3324 39.104V39.284C44.8924 39.668 46.1284 40.424 47.0404 41.552C47.9524 42.68 48.4084 44.156 48.4084 45.98C48.4084 47.348 48.0964 48.584 47.4724 49.688C46.8484 50.768 45.9124 51.62 44.6644 52.244C43.4164 52.868 41.9164 53.18 40.1644 53.18C37.6204 53.18 35.5324 52.52 33.9004 51.2C32.2684 49.856 31.3564 47.96 31.1644 45.512H34.3324C34.5004 46.952 35.0884 48.128 36.0964 49.04C37.1044 49.952 38.4484 50.408 40.1284 50.408C41.8084 50.408 43.0804 49.976 43.9444 49.112C44.8324 48.224 45.2764 47.084 45.2764 45.692C45.2764 43.892 44.6764 42.596 43.4764 41.804C42.2764 41.012 40.4644 40.616 38.0404 40.616H37.2124V37.88H38.0764C40.2844 37.856 41.9524 37.496 43.0804 36.8C44.2084 36.08 44.7724 34.976 44.7724 33.488C44.7724 32.216 44.3524 31.196 43.5124 30.428C42.6964 29.66 41.5204 29.276 39.9844 29.276C38.4964 29.276 37.2964 29.66 36.3844 30.428C35.4724 31.196 34.9324 32.228 34.7644 33.524H31.5604Z" fill="#2FAC66"/>
</svg>
