<svg width="80" height="80" viewBox="0 0 80 80" fill="none" xmlns="http://www.w3.org/2000/svg">
<circle cx="40" cy="40" r="37.5" stroke="#2FAC66" stroke-width="5"/>
<path d="M48.0253 29.816H35.3893V38.024C35.9413 37.256 36.7573 36.632 37.8373 36.152C38.9173 35.648 40.0813 35.396 41.3293 35.396C43.3213 35.396 44.9413 35.816 46.1893 36.656C47.4373 37.472 48.3253 38.54 48.8533 39.86C49.4053 41.156 49.6813 42.536 49.6813 44C49.6813 45.728 49.3573 47.276 48.7093 48.644C48.0613 50.012 47.0653 51.092 45.7213 51.884C44.4013 52.676 42.7573 53.072 40.7893 53.072C38.2693 53.072 36.2293 52.424 34.6693 51.128C33.1093 49.832 32.1613 48.104 31.8253 45.944H35.0293C35.3413 47.312 36.0013 48.38 37.0093 49.148C38.0173 49.916 39.2893 50.3 40.8253 50.3C42.7213 50.3 44.1493 49.736 45.1093 48.608C46.0693 47.456 46.5493 45.944 46.5493 44.072C46.5493 42.2 46.0693 40.76 45.1093 39.752C44.1493 38.72 42.7333 38.204 40.8613 38.204C39.5893 38.204 38.4733 38.516 37.5133 39.14C36.5773 39.74 35.8933 40.568 35.4613 41.624H32.3653V26.936H48.0253V29.816Z" fill="#2FAC66"/>
</svg>
