<svg width="80" height="80" viewBox="0 0 80 80" fill="none" xmlns="http://www.w3.org/2000/svg">
<circle cx="40" cy="40" r="37.5" stroke="#2FAC66" stroke-width="5"/>
<path d="M45.8142 33.164C45.2862 30.5 43.6422 29.168 40.8822 29.168C38.7462 29.168 37.1502 29.996 36.0942 31.652C35.0382 33.284 34.5222 35.984 34.5462 39.752C35.0982 38.504 36.0102 37.532 37.2822 36.836C38.5782 36.116 40.0182 35.756 41.6022 35.756C44.0742 35.756 46.0422 36.524 47.5062 38.06C48.9942 39.596 49.7382 41.72 49.7382 44.432C49.7382 46.064 49.4142 47.528 48.7662 48.824C48.1422 50.12 47.1822 51.152 45.8862 51.92C44.6142 52.688 43.0662 53.072 41.2422 53.072C38.7702 53.072 36.8382 52.52 35.4462 51.416C34.0542 50.312 33.0822 48.788 32.5302 46.844C31.9782 44.9 31.7022 42.5 31.7022 39.644C31.7022 30.836 34.7742 26.432 40.9182 26.432C43.2702 26.432 45.1182 27.068 46.4622 28.34C47.8062 29.612 48.5982 31.22 48.8382 33.164H45.8142ZM40.9182 38.528C39.8862 38.528 38.9142 38.744 38.0022 39.176C37.0902 39.584 36.3462 40.22 35.7702 41.084C35.2182 41.924 34.9422 42.956 34.9422 44.18C34.9422 46.004 35.4702 47.492 36.5262 48.644C37.5822 49.772 39.0942 50.336 41.0622 50.336C42.7422 50.336 44.0742 49.82 45.0582 48.788C46.0662 47.732 46.5702 46.316 46.5702 44.54C46.5702 42.668 46.0902 41.204 45.1302 40.148C44.1702 39.068 42.7662 38.528 40.9182 38.528Z" fill="#2FAC66"/>
</svg>
