<svg width="21" height="22" viewBox="0 0 21 22" fill="none" xmlns="http://www.w3.org/2000/svg">
<path d="M17.5 4H3.5C3.03587 4 2.59075 4.18437 2.26256 4.51256C1.93437 4.84075 1.75 5.28587 1.75 5.75V16.25C1.75 16.7141 1.93437 17.1592 2.26256 17.4874C2.59075 17.8156 3.03587 18 3.5 18H17.5C17.9641 18 18.4092 17.8156 18.7374 17.4874C19.0656 17.1592 19.25 16.7141 19.25 16.25V5.75C19.25 5.28587 19.0656 4.84075 18.7374 4.51256C18.4092 4.18437 17.9641 4 17.5 4ZM17.5 8.1125L10.5 12.7798L3.5 8.1125V6.00987L10.5 10.6762L17.5 6.00987V8.1125Z" fill="#2FAC66"/>
</svg>
