<svg width="138" height="34" viewBox="0 0 138 34" fill="none" xmlns="http://www.w3.org/2000/svg">
<g clip-path="url(#clip0_9_166)">
<path d="M16.7297 28.6131L16.1097 25.5899C15.7778 25.5554 15.4485 25.4996 15.1239 25.4229C14.9388 25.3801 14.7579 25.3287 14.5771 25.2773L14.3705 25.2088C13.3411 24.8655 12.3859 24.3323 11.5549 23.6373C11.3467 23.4689 11.1484 23.2887 10.9608 23.0977C10.8963 23.0378 10.8317 22.9693 10.7714 22.905L8.91161 24.7549L10.3151 22.3783C9.45891 21.3214 8.86856 20.0765 8.59303 18.7471C8.47553 18.1721 8.41639 17.5868 8.41652 17H5.40295V17.2184C5.40295 17.4453 5.40295 17.6766 5.43739 17.8992C5.43739 17.972 5.43739 18.0406 5.43739 18.1134C5.69503 20.7026 6.82005 23.1307 8.63178 25.0076C8.7351 25.1189 8.84273 25.2259 8.95036 25.333C10.4488 26.7785 12.308 27.8 14.336 28.2919L14.5384 28.339L14.7795 28.3904L15.0033 28.4333C15.5719 28.537 16.1476 28.5971 16.7254 28.6131H16.7297ZM26.6917 23.6116L24.2292 21.8987C23.6448 22.7336 22.916 23.4586 22.0766 24.0398C20.6554 25.0416 18.9622 25.591 17.2205 25.6156V28.6131C17.5945 28.6096 17.9681 28.5868 18.3398 28.5446C18.9374 28.4788 19.5289 28.3671 20.1092 28.2106L20.2599 28.1678L20.488 28.1035L20.8454 27.9879L20.9917 27.9365C21.095 27.898 21.1984 27.8637 21.3017 27.8209L21.4136 27.7781C21.5514 27.7224 21.6848 27.6668 21.814 27.6068L21.9173 27.564L22.3478 27.367C24.0889 26.4984 25.5826 25.2085 26.6917 23.6159V23.6116ZM16.7899 5.38262H16.5962L16.2088 5.40403H15.9505H15.9289C13.291 5.67047 10.8226 6.82109 8.92883 8.667C8.8212 8.76977 8.71358 8.88111 8.61025 8.98816C6.66917 11.012 5.52994 13.6662 5.40295 16.4605L8.45096 15.8395C8.66216 14.2689 9.3058 12.787 10.3108 11.5574C10.5088 11.3176 10.7154 11.0864 10.9393 10.8637L11.0383 10.7652L9.18714 8.91965L11.5549 10.3028H11.5765C12.6588 9.40415 13.9464 8.78363 15.3262 8.49572L15.7567 8.41864L15.9677 8.38438L16.1829 8.36297L16.4025 8.34156C16.622 8.34156 16.833 8.31587 17.0698 8.31587V5.31839L16.7899 5.38262ZM28.5343 14.6662L28.4697 14.3751C28.4352 14.238 28.4051 14.1053 28.3664 13.9725C27.8228 12.01 26.7737 10.2225 25.3227 8.7869C25.215 8.67985 25.1031 8.5728 24.9912 8.47431C23.1703 6.80118 20.8593 5.7509 18.3957 5.47683L18.1805 5.45542L17.8877 5.42972H17.8318H17.6036L18.2278 8.47003C18.3685 8.48716 18.512 8.50857 18.6584 8.53426L18.9425 8.56423L19.0673 8.59421C19.1793 8.6199 19.2912 8.64559 19.4031 8.67985C20.4988 8.97695 21.5235 9.48948 22.4167 10.1872C22.702 10.4077 22.9737 10.6451 23.2304 10.898L25.0988 9.03955L23.6781 11.3861C24.3532 12.1575 24.8826 13.0439 25.2409 14.0025H17.242V17H28.7753C28.7738 16.216 28.6931 15.4342 28.5343 14.6662Z" fill="#2FAC66"/>
<path d="M17.0913 0V8.35441C16.5025 8.35358 15.9153 8.41385 15.3391 8.53426L15.9763 5.434L17.0913 0Z" fill="#2FAC66"/>
<path d="M8.57576 18.7471L5.46317 18.1133L0 17H8.39925C8.39912 17.5868 8.45825 18.1721 8.57576 18.7471Z" fill="#2FAC66"/>
<path d="M18.9984 25.4658L18.3613 28.5532L17.2419 34V25.6456C17.7477 25.6374 18.2518 25.5858 18.7487 25.4915L18.9984 25.4658Z" fill="#2FAC66"/>
<path d="M9.19573 8.94533L11.0598 10.8038L10.9608 10.9023C10.737 11.1249 10.5303 11.3562 10.3323 11.596L8.61024 9.02669L7.35315 7.13828L8.92882 8.70553L9.17421 8.94961L9.19573 8.94533Z" fill="#2FAC66"/>
<path d="M11.5549 23.6373L8.97179 25.3501L7.07324 26.5962L8.65321 25.0247L8.8943 24.7849L10.7627 22.905C10.823 22.9693 10.8876 23.0378 10.9521 23.0977C11.1424 23.2889 11.3437 23.4691 11.5549 23.6373Z" fill="#2FAC66"/>
<path d="M26.8982 7.21964L25.3226 8.78689L25.0772 9.03097L23.2087 10.8894C22.9493 10.6362 22.6747 10.3989 22.3865 10.1786L24.9695 8.46573L26.8982 7.21964Z" fill="#2FAC66"/>
<path d="M24.3755 22.04L28.8571 25.0846L23.6393 22.905L24.3755 22.04Z" fill="#2FAC66"/>
<path d="M25.6842 17H31.113L25.568 15.8738L25.6842 17Z" fill="#2FAC66"/>
<path d="M44.8463 21.0038V23.3675H34.9359V10.6368H44.6095V13.0005H37.8806V15.7453H43.8216V18.0577H37.8806V21.0038H44.8463Z" fill="#2FAC66"/>
<path d="M56.8273 13.5829V23.3675H54.1194V22.2071C53.8485 22.5272 53.52 22.7944 53.1508 22.995C52.5114 23.34 51.7945 23.5183 51.0671 23.5131C50.3079 23.5284 49.5557 23.3656 48.8715 23.0378C48.2371 22.7203 47.719 22.2125 47.3905 21.5862C47.0121 20.817 46.8302 19.9669 46.861 19.1111V13.5829H49.7153V18.6743C49.6589 19.3213 49.8443 19.9662 50.2362 20.4857C50.4258 20.6806 50.6555 20.8325 50.9097 20.9308C51.1638 21.0291 51.4364 21.0715 51.7086 21.0552C52.118 21.0638 52.5223 20.9633 52.8795 20.764C53.2285 20.5644 53.5102 20.2663 53.6889 19.9076C53.9067 19.4552 54.0116 18.9572 53.9946 18.4559V13.5829H56.8273Z" fill="#2FAC66"/>
<path d="M65.5968 13.4373V16.0751C65.4917 16.0507 65.3854 16.0321 65.2782 16.0194C65.1779 16.0132 65.0772 16.0132 64.9769 16.0194C64.2726 15.9819 63.5822 16.2237 63.0568 16.6917C62.8001 16.9692 62.6041 17.2967 62.4811 17.6535C62.3581 18.0102 62.3108 18.3884 62.3422 18.7642V23.3675H59.4922V13.5829H62.2173V14.8675C62.4871 14.4982 62.8355 14.1926 63.2376 13.9725C63.9654 13.5972 64.7774 13.413 65.5968 13.4373Z" fill="#2FAC66"/>
<path d="M71.8694 23.5131C70.9045 23.5302 69.9509 23.3049 69.0969 22.8579C68.506 22.5273 67.9872 22.083 67.5707 21.5509C67.1542 21.0189 66.8483 20.4097 66.6708 19.7589C66.4933 19.1081 66.4478 18.4287 66.5369 17.7602C66.626 17.0917 66.8479 16.4476 67.1897 15.8652C67.6489 15.1085 68.3088 14.4922 69.0969 14.0839C69.9524 13.6418 70.9054 13.4195 71.8694 13.4373C72.8416 13.419 73.8031 13.6412 74.6677 14.0839C75.4595 14.4918 76.1236 15.1079 76.5877 15.8652C76.9474 16.4435 77.1835 17.0893 77.2814 17.7622C77.3793 18.4352 77.3368 19.121 77.1567 19.777C76.9766 20.4329 76.6627 21.045 76.2345 21.575C75.8062 22.1051 75.2729 22.5418 74.6677 22.8579C73.8046 23.3055 72.8425 23.5307 71.8694 23.5131ZM71.8694 21.1836C72.3203 21.192 72.7656 21.0827 73.1609 20.8668C73.5394 20.6434 73.8468 20.3184 74.0477 19.929C74.2843 19.4806 74.4014 18.9793 74.3878 18.4731C74.404 17.9679 74.2867 17.4674 74.0477 17.0214C73.8414 16.6375 73.5313 16.3186 73.1523 16.1008C72.7581 15.8819 72.312 15.7725 71.8607 15.7839C71.4098 15.7755 70.9645 15.8848 70.5692 16.1008C70.1868 16.3169 69.8734 16.636 69.6651 17.0214C69.4261 17.4674 69.3089 17.9679 69.325 18.4731C69.3115 18.9793 69.4286 19.4806 69.6651 19.929C69.8704 20.3209 70.1841 20.6463 70.5692 20.8668C70.9664 21.0859 71.4153 21.1953 71.8694 21.1836Z" fill="#2FAC66"/>
<path d="M78.9985 19.3852V17.1285H84.1647V19.4023L78.9985 19.3852Z" fill="#2FAC66"/>
<path d="M95.3451 16.803H98.0487V21.9673C97.3191 22.5121 96.4965 22.9212 95.6206 23.1748C94.7326 23.4507 93.8085 23.595 92.8782 23.603C91.9236 23.6128 90.9752 23.4488 90.0799 23.1191C89.2563 22.8167 88.5034 22.3505 87.8671 21.7489C87.2454 21.1553 86.7505 20.4431 86.412 19.6549C85.7177 17.9642 85.7177 16.0701 86.412 14.3793C86.7548 13.5905 87.2558 12.8794 87.8843 12.2897C88.5281 11.6881 89.2863 11.2208 90.1144 10.9151C91.0163 10.5882 91.97 10.4258 92.9299 10.4355C93.981 10.4127 95.0261 10.5991 96.0037 10.9836C96.888 11.3405 97.6745 11.9011 98.2984 12.6194L96.4127 14.3622C95.9764 13.8999 95.4507 13.5299 94.8672 13.2746C94.2962 13.0313 93.6802 12.9102 93.0591 12.9191C92.4839 12.912 91.9127 13.0138 91.3758 13.2189C90.8809 13.4138 90.4301 13.7049 90.0498 14.0753C89.6775 14.4405 89.3844 14.8777 89.1888 15.36C88.7868 16.4182 88.7868 17.5861 89.1888 18.6443C89.3838 19.127 89.6769 19.5643 90.0498 19.929C90.429 20.2967 90.8764 20.5875 91.3671 20.7854C91.8997 20.9962 92.4687 21.101 93.0418 21.0937C93.6283 21.0946 94.2106 20.9961 94.7639 20.8025C94.9687 20.7317 95.1674 20.6444 95.358 20.5413L95.3451 16.803Z" fill="#2FAC66"/>
<path d="M106.698 13.4373V16.0751C106.593 16.0507 106.486 16.0321 106.379 16.0194C106.279 16.0133 106.178 16.0133 106.078 16.0194C105.373 15.982 104.683 16.2237 104.158 16.6917C103.902 16.9697 103.706 17.2972 103.583 17.6538C103.46 18.0105 103.412 18.3885 103.443 18.7642V23.3675H100.593V13.5829H103.322V14.8675C103.595 14.499 103.944 14.1936 104.347 13.9726C105.072 13.5986 105.881 13.4144 106.698 13.4373Z" fill="#2FAC66"/>
<path d="M115.217 14.4907C114.391 13.7884 113.224 13.4373 111.726 13.4373C110.948 13.4365 110.174 13.5373 109.423 13.737C108.727 13.9082 108.07 14.2074 107.485 14.6192L108.488 16.6018C108.879 16.3101 109.315 16.0858 109.78 15.938C110.279 15.7752 110.8 15.6913 111.326 15.6897C111.944 15.6372 112.56 15.821 113.048 16.2035C113.238 16.3859 113.386 16.6069 113.483 16.8515C113.579 17.0961 113.622 17.3585 113.607 17.6209H111.356C110.528 17.5936 109.702 17.7169 108.919 17.9849C108.378 18.1576 107.909 18.5029 107.585 18.9674C107.262 19.4319 107.101 19.9896 107.128 20.5542C107.118 21.088 107.268 21.6128 107.559 22.0615C107.876 22.5279 108.319 22.896 108.837 23.1234C109.452 23.399 110.122 23.5337 110.796 23.5174C111.535 23.5487 112.268 23.3752 112.914 23.0164C113.265 22.8023 113.56 22.5089 113.775 22.16V23.3804H116.444V17.8136C116.456 16.3035 116.047 15.1958 115.217 14.4907ZM112.794 21.2736C112.4 21.494 111.954 21.6077 111.502 21.6033C111.091 21.6239 110.683 21.5128 110.34 21.2864C110.211 21.1886 110.106 21.0635 110.032 20.9203C109.957 20.777 109.916 20.6192 109.911 20.4582C109.905 20.2971 109.936 20.1369 110.001 19.9891C110.065 19.8413 110.162 19.7096 110.284 19.6035C110.694 19.3412 111.181 19.2249 111.666 19.2738H113.624V20.2758C113.484 20.7006 113.187 21.0568 112.794 21.2736Z" fill="#2FAC66"/>
<path d="M129.097 17.7665V23.3675H126.243V18.2033C126.291 17.5749 126.101 16.9514 125.709 16.4562C125.519 16.2627 125.289 16.1121 125.035 16.0146C124.781 15.917 124.508 15.8749 124.237 15.8909C123.814 15.8845 123.396 15.9847 123.023 16.1821C122.655 16.3749 122.355 16.6734 122.162 17.0385C121.943 17.5042 121.84 18.0152 121.86 18.5287V23.3675H119.01V13.5829H121.735V14.7433C122.022 14.4276 122.361 14.1639 122.738 13.964C123.433 13.6041 124.207 13.423 124.99 13.4373C125.714 13.425 126.431 13.5835 127.082 13.8997C127.702 14.2133 128.209 14.7099 128.533 15.3214C128.928 16.0751 129.122 16.9169 129.097 17.7665Z" fill="#2FAC66"/>
<path d="M138 22.8922C137.69 23.1149 137.339 23.2736 136.967 23.3589C136.552 23.4625 136.125 23.5143 135.697 23.5131C134.714 23.5719 133.746 23.2565 132.989 22.631C132.343 22.0429 132.02 21.1665 132.02 20.0018V15.9809H130.505V13.8013H132.02V11.4204H134.892V13.8013H137.333V15.9809H134.9V19.9461C134.878 20.296 134.992 20.641 135.219 20.9096C135.329 21.0251 135.463 21.1158 135.612 21.1757C135.76 21.2355 135.92 21.263 136.08 21.2564C136.5 21.27 136.913 21.1417 137.251 20.8925L138 22.8922Z" fill="#2FAC66"/>
</g>
<defs>
<clipPath id="clip0_9_166">
<rect width="138" height="34" fill="white"/>
</clipPath>
</defs>
</svg>
