<svg width="281" height="70" viewBox="0 0 281 70" fill="none" xmlns="http://www.w3.org/2000/svg">
<path d="M34.0654 58.9094L32.8031 52.6852C32.1273 52.6142 31.4567 52.4994 30.7956 52.3414C30.4187 52.2532 30.0505 52.1474 29.6823 52.0416L29.2615 51.9006C27.1654 51.1937 25.2205 50.0961 23.5285 48.6651C23.1045 48.3183 22.7006 47.9474 22.3187 47.5542C22.1872 47.4308 22.0557 47.2898 21.933 47.1575L18.146 50.9661L21.0038 46.0731C19.2604 43.897 18.0584 41.3341 17.4973 38.5971C17.2581 37.4132 17.1376 36.2082 17.1379 35.0001H11.0016V35.4497C11.0016 35.917 11.0016 36.393 11.0717 36.8515C11.0717 37.0013 11.0717 37.1424 11.0717 37.2923C11.5963 42.6232 13.8871 47.6221 17.5762 51.4862C17.7866 51.7155 18.0058 51.9358 18.2249 52.1563C21.2762 55.1323 25.062 57.2353 29.1914 58.2482L29.6034 58.3452L30.0943 58.451L30.5502 58.5391C31.7078 58.7528 32.8801 58.8766 34.0566 58.9094H34.0654ZM54.3504 48.6122L49.3361 45.0857C48.1463 46.8046 46.6622 48.2972 44.953 49.4938C42.0591 51.5563 38.6113 52.6875 35.0648 52.7381V58.9094C35.8264 58.9023 36.5872 58.8552 37.344 58.7683C38.5608 58.6329 39.7653 58.403 40.9469 58.0807L41.2537 57.9925L41.7183 57.8603L42.4459 57.6223L42.7439 57.5165C42.9543 57.4371 43.1647 57.3666 43.3751 57.2784L43.603 57.1903C43.8835 57.0757 44.1553 56.961 44.4183 56.8376L44.6287 56.7495L45.5053 56.3439C49.0505 54.5556 52.092 51.8999 54.3504 48.621V48.6122ZM34.1881 11.0819H33.7937L33.0047 11.126H32.4787H32.4349C27.0635 11.6746 22.0372 14.0435 18.1811 17.8439C17.9619 18.0555 17.7428 18.2847 17.5324 18.5051C13.5799 22.6719 11.2602 28.1364 11.0016 33.8893L17.208 32.6109C17.6381 29.3773 18.9487 26.3262 20.995 23.7948C21.3983 23.3011 21.8191 22.825 22.2749 22.3666L22.4765 22.1638L18.7071 18.3641L23.5285 21.2117H23.5723C25.7762 19.3616 28.398 18.084 31.2076 17.4913L32.0843 17.3326L32.5138 17.262L32.9521 17.218L33.3992 17.1739C33.8463 17.1739 34.2758 17.121 34.7579 17.121V10.9497L34.1881 11.0819ZM58.1023 30.1953L57.9708 29.5958C57.9007 29.3137 57.8393 29.0404 57.7604 28.7671C56.6537 24.7265 54.5174 21.0464 51.5627 18.0908C51.3436 17.8704 51.1156 17.65 50.8877 17.4472C47.18 14.0025 42.4743 11.8402 37.4579 11.2759L37.0196 11.2318L36.4235 11.1789H36.3096H35.8449L37.116 17.4384C37.4024 17.4736 37.6946 17.5177 37.9927 17.5706L38.5712 17.6323L38.8255 17.694C39.0534 17.7469 39.2813 17.7998 39.5092 17.8704C41.7403 18.482 43.8268 19.5373 45.6455 20.9736C46.2264 21.4277 46.7797 21.9164 47.3024 22.4371L51.1069 18.6109L48.214 23.4422C49.5886 25.0303 50.6667 26.8552 51.3962 28.8288H35.1086V35.0001H58.5932C58.5901 33.386 58.4257 31.7763 58.1023 30.1953Z" fill="white"/>
<path d="M34.8017 0V17.2003C33.6029 17.1985 32.4071 17.3226 31.2339 17.5705L32.5313 11.1877L34.8017 0Z" fill="white"/>
<path d="M17.4622 38.597L11.1243 37.2922L0 35H17.1028C17.1026 36.2081 17.223 37.4131 17.4622 38.597Z" fill="white"/>
<path d="M38.6851 52.4297L37.3877 58.7861L35.1085 70.0002V52.8C36.1384 52.783 37.1649 52.6768 38.1767 52.4826L38.6851 52.4297Z" fill="white"/>
<path d="M18.7246 18.4167L22.5203 22.2429L22.3187 22.4457C21.8629 22.9041 21.4421 23.3802 21.0389 23.8739L17.5324 18.5842L14.9727 14.6963L18.1811 17.923L18.6808 18.4255L18.7246 18.4167Z" fill="white"/>
<path d="M23.5284 48.6648L18.2687 52.1912L14.4028 54.7567L17.62 51.5212L18.1109 51.0275L21.9155 47.1572C22.0382 47.2895 22.1697 47.4305 22.3012 47.5539C22.6887 47.9477 23.0984 48.3185 23.5284 48.6648Z" fill="white"/>
<path d="M54.7711 14.8638L51.5626 18.0905L51.063 18.593L47.2584 22.4192C46.7301 21.898 46.171 21.4092 45.5841 20.9557L50.8438 17.4293L54.7711 14.8638Z" fill="white"/>
<path d="M49.6341 45.3765L58.7597 51.6447L48.1351 47.1573L49.6341 45.3765Z" fill="white"/>
<path d="M52.2991 34.9998H63.3532L52.0624 32.6812L52.2991 34.9998Z" fill="white"/>
<path d="M91.3173 43.2432V48.1097H71.1376V21.8994H90.8352V26.7659H77.1336V32.417H89.231V37.1778H77.1336V43.2432H91.3173Z" fill="white"/>
<path d="M115.714 27.9648V48.1097H110.2V45.7205C109.648 46.3797 108.979 46.9298 108.227 47.3427C106.925 48.053 105.466 48.4201 103.984 48.4094C102.438 48.4409 100.907 48.1056 99.5137 47.4308C98.2219 46.7771 97.167 45.7316 96.4981 44.4422C95.7276 42.8586 95.3572 41.1084 95.4199 39.3465V27.9648H101.232V38.4472C101.117 39.7792 101.495 41.1071 102.293 42.1764C102.679 42.5778 103.146 42.8904 103.664 43.0928C104.181 43.2952 104.736 43.3826 105.291 43.349C106.124 43.3667 106.948 43.1597 107.675 42.7495C108.386 42.3385 108.959 41.7249 109.323 40.9863C109.767 40.0549 109.98 39.0297 109.945 37.9976V27.9648H115.714Z" fill="white"/>
<path d="M133.57 27.665V33.0958C133.356 33.0455 133.14 33.0073 132.922 32.9812C132.717 32.9685 132.512 32.9685 132.308 32.9812C130.874 32.9041 129.468 33.4018 128.398 34.3653C127.876 34.9367 127.476 35.6109 127.226 36.3454C126.975 37.0798 126.879 37.8585 126.943 38.6323V48.1096H121.14V27.9648H126.689V30.6096C127.238 29.8493 127.948 29.2201 128.766 28.767C130.248 27.9943 131.902 27.615 133.57 27.665Z" fill="white"/>
<path d="M146.343 48.4096C144.378 48.4448 142.436 47.9809 140.697 47.0607C139.494 46.3799 138.438 45.4652 137.59 44.3698C136.742 43.2744 136.119 42.0202 135.757 40.6803C135.396 39.3405 135.303 37.9416 135.485 36.5654C135.666 35.1891 136.118 33.8629 136.814 32.664C137.749 31.106 139.093 29.8372 140.697 28.9965C142.439 28.0863 144.38 27.6287 146.343 27.6652C148.322 27.6277 150.28 28.0851 152.041 28.9965C153.653 29.8362 155.005 31.1048 155.95 32.664C156.683 33.8545 157.164 35.184 157.363 36.5695C157.562 37.955 157.476 39.367 157.109 40.7175C156.742 42.068 156.103 43.3281 155.231 44.4194C154.359 45.5107 153.273 46.4098 152.041 47.0607C150.283 47.982 148.324 48.4458 146.343 48.4096ZM146.343 43.6136C147.261 43.6308 148.168 43.4058 148.973 42.9612C149.743 42.5014 150.369 41.8322 150.778 41.0305C151.26 40.1072 151.499 39.0752 151.471 38.033C151.504 36.993 151.265 35.9625 150.778 35.0443C150.358 34.2538 149.727 33.5973 148.955 33.1489C148.152 32.6983 147.244 32.473 146.325 32.4965C145.407 32.4793 144.5 32.7042 143.695 33.1489C142.917 33.5939 142.279 34.2509 141.854 35.0443C141.368 35.9625 141.129 36.993 141.162 38.033C141.134 39.0752 141.373 40.1072 141.854 41.0305C142.272 41.8375 142.911 42.5074 143.695 42.9612C144.504 43.4124 145.418 43.6377 146.343 43.6136Z" fill="white"/>
<path d="M160.859 39.9107V35.2646H171.379V39.946L160.859 39.9107Z" fill="white"/>
<path d="M194.145 34.5944H199.65V45.2266C198.164 46.3484 196.489 47.1907 194.706 47.7128C192.897 48.2808 191.016 48.5779 189.122 48.5944C187.178 48.6146 185.247 48.2769 183.424 47.5981C181.747 46.9756 180.213 46.0156 178.918 44.777C177.652 43.555 176.644 42.0887 175.955 40.4659C174.541 36.985 174.541 33.0853 175.955 29.6044C176.653 27.9803 177.673 26.5164 178.953 25.3022C180.264 24.0637 181.808 23.1015 183.494 22.4722C185.33 21.7992 187.272 21.4647 189.227 21.4848C191.367 21.4379 193.495 21.8215 195.486 22.6133C197.286 23.348 198.888 24.5023 200.158 25.981L196.319 29.5692C195.43 28.6173 194.36 27.8557 193.172 27.3299C192.009 26.8291 190.755 26.5798 189.49 26.5981C188.319 26.5835 187.156 26.793 186.062 27.2153C185.055 27.6165 184.137 28.2159 183.362 28.9785C182.604 29.7303 182.007 30.6304 181.609 31.6233C180.79 33.8021 180.79 36.2065 181.609 38.3853C182.006 39.3789 182.603 40.2793 183.362 41.0301C184.134 41.7872 185.045 42.386 186.045 42.7934C187.129 43.2274 188.288 43.4431 189.455 43.4281C190.649 43.4299 191.835 43.2272 192.961 42.8286C193.378 42.6829 193.783 42.503 194.171 42.2908L194.145 34.5944Z" fill="white"/>
<path d="M217.261 27.665V33.0958C217.047 33.0455 216.831 33.0073 216.612 32.9812C216.408 32.9685 216.203 32.9685 215.999 32.9812C214.565 32.9041 213.159 33.4018 212.089 34.3653C211.568 34.9376 211.169 35.612 210.919 36.3462C210.669 37.0804 210.572 37.8586 210.634 38.6323V48.1096H204.831V27.9648H210.388V30.6096C210.943 29.8508 211.655 29.2221 212.475 28.7671C213.951 27.9972 215.598 27.618 217.261 27.665Z" fill="white"/>
<path d="M234.609 29.8338C232.926 28.388 230.551 27.665 227.5 27.665C225.917 27.6634 224.34 27.8709 222.81 28.2822C221.394 28.6346 220.056 29.2506 218.865 30.0983L220.908 34.1802C221.702 33.5798 222.591 33.1178 223.538 32.8137C224.554 32.4783 225.616 32.3058 226.685 32.3023C227.945 32.1944 229.198 32.5726 230.191 33.3603C230.579 33.7357 230.881 34.1908 231.077 34.6943C231.274 35.1979 231.361 35.7382 231.331 36.2784H226.746C225.061 36.2221 223.379 36.4761 221.784 37.0278C220.683 37.3833 219.728 38.0943 219.069 39.0506C218.41 40.0069 218.082 41.1551 218.138 42.3174C218.117 43.4165 218.422 44.497 219.014 45.4207C219.661 46.3811 220.563 47.1388 221.618 47.6071C222.87 48.1745 224.233 48.4517 225.607 48.4182C227.111 48.4826 228.605 48.1255 229.919 47.3867C230.634 46.946 231.235 46.3419 231.673 45.6235V48.1361H237.108V36.6751C237.131 33.566 236.298 31.2855 234.609 29.8338ZM229.674 43.7986C228.872 44.2524 227.965 44.4865 227.044 44.4774C226.206 44.5198 225.377 44.2912 224.677 43.825C224.415 43.6236 224.201 43.3661 224.05 43.0712C223.899 42.7763 223.815 42.4513 223.804 42.1198C223.793 41.7882 223.855 41.4584 223.987 41.1541C224.118 40.8498 224.315 40.5787 224.563 40.3603C225.398 39.8201 226.39 39.5808 227.377 39.6814H231.366V41.7444C231.079 42.6188 230.475 43.3523 229.674 43.7986Z" fill="white"/>
<path d="M262.872 36.5783V48.1098H257.06V37.4775C257.158 36.1839 256.77 34.9001 255.973 33.8805C255.585 33.4822 255.116 33.1721 254.599 32.9714C254.082 32.7706 253.528 32.6838 252.975 32.7168C252.113 32.7036 251.263 32.9098 250.502 33.3163C249.755 33.7132 249.144 34.3277 248.749 35.0795C248.304 36.0383 248.094 37.0903 248.136 38.1475V48.1098H242.332V27.9649H247.881V30.3541C248.465 29.7042 249.156 29.1612 249.924 28.7496C251.338 28.0087 252.914 27.6359 254.509 27.6652C255.984 27.6399 257.444 27.9662 258.769 28.6173C260.031 29.2628 261.063 30.2853 261.723 31.5443C262.528 33.096 262.923 34.8291 262.872 36.5783Z" fill="white"/>
<path d="M281 47.1311C280.37 47.5896 279.654 47.9163 278.896 48.092C278.051 48.3052 277.182 48.4118 276.31 48.4094C274.309 48.5304 272.338 47.8811 270.796 46.5933C269.481 45.3826 268.824 43.5782 268.824 41.1802V32.9019H265.738V28.4145H268.824V23.5127H274.671V28.4145H279.641V32.9019H274.688V41.0656C274.643 41.786 274.876 42.4962 275.337 43.0492C275.562 43.2871 275.834 43.4739 276.137 43.597C276.439 43.7202 276.764 43.7769 277.09 43.7633C277.946 43.7913 278.787 43.5272 279.475 43.014L281 47.1311Z" fill="white"/>
</svg>
