<svg width="21" height="22" viewBox="0 0 21 22" fill="none" xmlns="http://www.w3.org/2000/svg">
<path d="M17.5 10.1241H19.25C19.25 5.63537 15.8611 2.25 11.3662 2.25V4C14.9205 4 17.5 6.57512 17.5 10.1241Z" fill="#2FAC66"/>
<path d="M11.375 7.5C13.2151 7.5 14 8.28487 14 10.125H15.75C15.75 7.30312 14.1969 5.75 11.375 5.75V7.5ZM14.3693 12.2626C14.2011 12.1098 13.9802 12.0283 13.7531 12.0353C13.526 12.0423 13.3105 12.1373 13.1521 12.3002L11.0583 14.4536C10.5543 14.3574 9.541 14.0415 8.498 13.0011C7.455 11.9572 7.13913 10.9414 7.0455 10.4409L9.19713 8.34612C9.36024 8.18786 9.45537 7.97234 9.46239 7.74518C9.46942 7.51801 9.38778 7.29703 9.23475 7.129L6.00163 3.57387C5.84854 3.40531 5.63577 3.30306 5.40851 3.28885C5.18125 3.27463 4.9574 3.34957 4.7845 3.49775L2.88575 5.12612C2.73447 5.27795 2.64418 5.48001 2.632 5.694C2.61888 5.91275 2.36863 11.0945 6.38663 15.1142C9.89188 18.6186 14.2826 18.875 15.4919 18.875C15.6686 18.875 15.7771 18.8697 15.806 18.868C16.02 18.856 16.2219 18.7653 16.373 18.6134L18.0005 16.7137C18.1488 16.541 18.2239 16.3172 18.2098 16.0899C18.1958 15.8627 18.0937 15.6498 17.9253 15.4966L14.3693 12.2626Z" fill="#2FAC66"/>
</svg>
