<svg width="148" height="153" viewBox="0 0 148 153" fill="none" xmlns="http://www.w3.org/2000/svg">
<g opacity="0.4">
<path d="M-111.003 148.159C-200.983 173.024 -210.142 80.9146 -182.973 14.4423C-169 -24.3412 -212.454 -49.8108 -195.112 -97.8559C-177.77 -145.901 -123.143 -88.3052 -95.1065 -161.82C-67.0704 -235.335 58.3702 -199.446 59.8154 -135.192C61.2606 -70.9393 82.36 -88.5943 130.629 -24.3409C178.897 39.9121 111.841 148.159 41.0283 121.242C-29.7852 94.325 -13.5991 121.242 -111.003 148.159V148.159Z" stroke="url(#paint0_linear_9_351)"/>
<path d="M-40.9771 9.87095C-49.5472 12.7401 -63.3728 -0.697797 -57.4724 -11.5033C-52.0693 -21.398 -55.7135 -31.4738 -53.3046 -38.1306C-46.9632 -55.6556 -43.6065 -49.2094 -36.0752 -57.0433C-26.9102 -66.5764 -2.91195 -71.1254 -2.91195 -49.2094C-2.91195 -31.1844 5.83073 -36.5775 9.70446 -23.0802C13.5785 -9.58292 6.98441 5.72388 -10.376 5.72388C-16.8952 5.72388 -26.7034 5.09256 -40.9771 9.87095V9.87095Z" stroke="url(#paint1_linear_9_351)"/>
<path d="M-105.075 135.589C-187.654 158.454 -197.237 73.497 -172.001 12.0856C-158.807 -24.0718 -198.642 -48.1419 -182.658 -92.4247C-166.316 -137.695 -116.35 -84.7491 -90.1774 -152.293C-63.8568 -219.992 52.3617 -187.778 53.6757 -127.374C54.9895 -67.3233 74.9654 -83.8638 119.198 -24.2246C163.431 35.4143 101.872 135.212 35.9179 110.742C-29.0504 86.2719 -15.2278 110.685 -105.075 135.589V135.589Z" stroke="url(#paint2_linear_9_351)"/>
<path d="M-99.1454 123.019C-174.323 143.885 -184.331 66.0797 -161.029 9.72874C-148.614 -23.8022 -184.83 -46.4732 -170.203 -86.9932C-154.861 -129.489 -109.556 -81.193 -85.2477 -142.766C-60.6426 -204.648 46.3541 -176.111 47.5363 -119.556C48.7189 -63.7072 67.5716 -79.1331 107.769 -24.1082C147.965 30.9166 91.9026 122.265 30.808 100.242C-28.3154 78.2193 -16.8556 100.128 -99.1454 123.019V123.019Z" stroke="url(#paint3_linear_9_351)"/>
<path d="M-93.216 110.449C-160.993 129.315 -171.425 58.6622 -150.056 7.37184C-138.42 -23.533 -171.017 -44.8043 -157.748 -81.5619C-143.406 -121.284 -102.762 -77.6372 -80.3176 -133.239C-57.428 -189.305 40.3463 -164.444 41.3974 -111.737C42.4484 -60.0915 60.178 -74.4027 96.3389 -23.9919C132.5 26.4189 81.9334 109.318 25.6983 89.7422C-27.5802 70.1663 -18.4834 89.5703 -93.216 110.449Z" stroke="url(#paint4_linear_9_351)"/>
<path d="M-87.2861 97.8791C-147.662 114.746 -158.518 51.2443 -139.083 5.01437C-128.226 -23.2639 -157.204 -43.1357 -145.293 -76.1307C-131.951 -113.078 -95.9673 -74.0814 -75.3873 -123.712C-54.2133 -173.961 34.3392 -152.777 35.2588 -103.919C36.1783 -56.4758 52.7844 -69.6722 84.9097 -23.8756C117.035 21.9209 71.9649 96.3713 20.589 79.2421C-26.8447 62.1133 -20.111 79.013 -87.2861 97.8791V97.8791Z" stroke="url(#paint5_linear_9_351)"/>
<path d="M-81.056 85.308C-134.031 100.175 -145.311 43.8254 -127.81 2.65637C-117.732 -22.996 -143.091 -41.4684 -132.537 -70.7008C-120.195 -104.873 -88.8726 -70.527 -70.1565 -114.187C-50.6983 -158.619 28.6321 -141.111 29.4205 -96.1017C30.2088 -52.8614 45.6915 -64.9429 73.7807 -23.7606C101.87 17.4218 62.2965 83.423 15.7803 68.741C-25.8085 54.0589 -21.438 68.454 -81.056 85.308Z" stroke="url(#paint6_linear_9_351)"/>
<path d="M-74.4698 72.7376C-120.044 85.6047 -131.749 36.4072 -116.181 0.298918C-106.882 -22.7271 -128.622 -39.8001 -119.425 -65.2699C-108.084 -96.6677 -81.4221 -66.9715 -64.5702 -104.66C-46.8276 -143.276 23.2811 -129.444 23.9379 -88.2839C24.5948 -49.2462 38.9543 -60.213 63.0075 -23.6448C87.0608 12.9235 52.984 70.4756 11.327 58.2406C-24.4169 46.0057 -22.4095 57.8965 -74.4698 72.7376V72.7376Z" stroke="url(#paint7_linear_9_351)"/>
<path d="M-67.8647 60.167C-106.038 71.0344 -118.167 28.9888 -104.532 -2.05882C-96.013 -22.4584 -114.134 -38.1323 -106.294 -59.8395C-95.9529 -88.4627 -73.9522 -63.4163 -58.9644 -95.1345C-42.9373 -127.934 17.9492 -117.778 18.4746 -80.4664C19 -45.631 32.2363 -55.4832 52.2536 -23.5293C72.2709 8.42491 43.6909 57.5278 6.89321 47.7402C-23.0058 37.9521 -23.3616 47.3386 -67.8647 60.1673V60.167Z" stroke="url(#paint8_linear_9_351)"/>
<path d="M-61.2309 47.5959C-92.0035 56.4635 -104.556 21.5702 -92.8555 -4.41707C-85.1152 -22.1906 -99.6164 -36.4647 -93.1351 -54.4093C-83.7935 -80.2582 -66.4538 -59.8618 -53.3302 -85.6087C-39.0187 -112.592 12.6458 -106.112 13.04 -72.6493C13.4342 -42.0166 25.5467 -50.7541 41.5283 -23.4143C57.5097 3.9261 34.4263 44.5801 2.48785 37.2391C-21.5662 29.8981 -24.2852 36.78 -61.2309 47.5961V47.5959Z" stroke="url(#paint9_linear_9_351)"/>
<path d="M-54.555 35.0236C-77.9266 41.8919 -90.9037 14.1504 -81.1364 -6.77616C-74.1751 -21.9236 -85.0575 -34.7983 -79.9334 -48.9803C-71.592 -72.0545 -58.9135 -56.3082 -47.6539 -76.0841C-35.0579 -97.2502 7.38457 -94.447 7.64754 -64.8331C7.91023 -38.4028 18.8996 -46.0256 30.845 -23.2998C42.7906 -0.574366 25.2037 31.6308 -1.87534 26.7366C-20.0843 21.8429 -25.1667 26.2202 -54.555 35.0236Z" stroke="url(#paint10_linear_9_351)"/>
<path d="M-47.8152 22.4497C-63.7862 27.3183 -77.1874 6.72876 -69.3537 -9.13716C-63.1715 -21.6582 -70.4347 -33.1334 -66.6682 -43.5529C-59.3269 -63.8525 -51.3092 -52.7562 -41.9137 -66.5614C-31.0333 -81.911 2.1871 -82.7837 2.31858 -57.0188C2.45007 -34.7912 12.3159 -41.2992 20.2254 -23.1876C28.1356 -5.0762 16.0448 18.6798 -6.17448 16.2327C-18.5388 13.7858 -25.9841 15.6588 -47.8149 22.4497H-47.8152Z" stroke="url(#paint11_linear_9_351)"/>
</g>
<defs>
<linearGradient id="paint0_linear_9_351" x1="268.275" y1="192.367" x2="-5.83803" y2="-4.00001" gradientUnits="userSpaceOnUse">
<stop stop-color="#18DB4F"/>
<stop offset="1" stop-color="#185ADB" stop-opacity="0"/>
</linearGradient>
<linearGradient id="paint1_linear_9_351" x1="268.275" y1="192.367" x2="-5.83806" y2="-4.00001" gradientUnits="userSpaceOnUse">
<stop stop-color="#1CDB18"/>
<stop offset="1" stop-color="#185ADB" stop-opacity="0"/>
</linearGradient>
<linearGradient id="paint2_linear_9_351" x1="268.275" y1="192.367" x2="-5.838" y2="-4.00001" gradientUnits="userSpaceOnUse">
<stop stop-color="#18DB4F"/>
<stop offset="1" stop-color="#185ADB" stop-opacity="0"/>
</linearGradient>
<linearGradient id="paint3_linear_9_351" x1="268.275" y1="192.367" x2="-5.83796" y2="-3.99999" gradientUnits="userSpaceOnUse">
<stop stop-color="#18DB2B"/>
<stop offset="1" stop-color="#18DB66" stop-opacity="0"/>
</linearGradient>
<linearGradient id="paint4_linear_9_351" x1="268.275" y1="192.367" x2="-5.83805" y2="-4.00001" gradientUnits="userSpaceOnUse">
<stop stop-color="#18DB2B"/>
<stop offset="1" stop-color="#18DB2B" stop-opacity="0"/>
</linearGradient>
<linearGradient id="paint5_linear_9_351" x1="268.275" y1="192.367" x2="-5.83807" y2="-4" gradientUnits="userSpaceOnUse">
<stop stop-color="#18DB4F"/>
<stop offset="1" stop-color="#185ADB" stop-opacity="0"/>
</linearGradient>
<linearGradient id="paint6_linear_9_351" x1="268.275" y1="192.367" x2="-5.83796" y2="-4" gradientUnits="userSpaceOnUse">
<stop stop-color="#18DB43"/>
<stop offset="1" stop-color="#18DB66" stop-opacity="0"/>
</linearGradient>
<linearGradient id="paint7_linear_9_351" x1="268.275" y1="192.367" x2="-5.83797" y2="-4.00001" gradientUnits="userSpaceOnUse">
<stop stop-color="#18DB4F"/>
<stop offset="1" stop-color="#185ADB" stop-opacity="0"/>
</linearGradient>
<linearGradient id="paint8_linear_9_351" x1="268.275" y1="192.367" x2="-5.83806" y2="-4.00003" gradientUnits="userSpaceOnUse">
<stop stop-color="#18DB2B"/>
<stop offset="1" stop-color="#18DB5A" stop-opacity="0"/>
</linearGradient>
<linearGradient id="paint9_linear_9_351" x1="268.275" y1="192.367" x2="-5.83801" y2="-4.00006" gradientUnits="userSpaceOnUse">
<stop stop-color="#18DB20"/>
<stop offset="1" stop-color="#1CDB18" stop-opacity="0"/>
</linearGradient>
<linearGradient id="paint10_linear_9_351" x1="268.275" y1="192.367" x2="-5.83804" y2="-4.00001" gradientUnits="userSpaceOnUse">
<stop stop-color="#1CDB18"/>
<stop offset="1" stop-color="#185ADB" stop-opacity="0"/>
</linearGradient>
<linearGradient id="paint11_linear_9_351" x1="268.275" y1="192.367" x2="-5.83798" y2="-4.00003" gradientUnits="userSpaceOnUse">
<stop stop-color="#24FF61"/>
<stop offset="1" stop-color="#185ADB" stop-opacity="0"/>
</linearGradient>
</defs>
</svg>
