<svg width="107" height="224" viewBox="0 0 107 224" fill="none" xmlns="http://www.w3.org/2000/svg">
<g opacity="0.3">
<path d="M89.1667 351.45C-0.884367 376.316 -10.0501 284.206 17.1395 217.733C31.1235 178.951 -12.364 153.481 4.9902 105.436C22.3471 57.3906 77.0175 114.987 105.075 41.4718C133.133 -32.0429 258.674 3.84632 260.12 68.0996C261.565 132.353 282.681 114.698 330.987 178.951C379.296 243.204 312.185 351.45 241.317 324.535C170.447 297.617 186.647 324.535 89.1667 351.45V351.45Z" stroke="url(#paint0_linear_9_364)"/>
<path d="M95.0985 338.881C12.4546 361.747 2.86418 276.789 28.121 215.376C41.3237 179.22 1.45681 155.15 17.4553 110.867C33.8104 65.5967 83.8149 118.543 110.008 50.9989C136.351 -16.6996 252.661 15.5137 253.976 75.918C255.29 135.969 275.282 119.428 319.548 179.067C363.817 238.705 302.208 338.505 236.202 314.034C171.185 289.563 185.016 313.977 95.0985 338.881V338.881Z" stroke="url(#paint1_linear_9_364)"/>
<path d="M101.033 326.311C25.7961 347.178 15.7811 269.372 39.1024 213.019C51.5266 179.49 15.2802 156.819 29.9203 116.299C45.2736 73.8025 90.615 122.099 114.941 60.5259C139.566 -1.35601 246.647 27.1808 247.831 83.7364C249.013 139.585 267.881 124.159 308.11 179.184C348.339 234.21 292.231 325.557 231.09 303.535C171.92 281.511 183.388 303.421 101.033 326.311Z" stroke="url(#paint2_linear_9_364)"/>
<path d="M106.967 313.742C39.1377 332.608 28.698 261.953 50.0838 210.662C61.7267 179.759 29.1036 158.488 42.3853 121.73C56.7369 82.0084 97.4151 125.655 119.876 70.0527C142.784 13.9873 240.634 38.8481 241.687 91.5548C242.738 143.2 260.482 128.889 296.671 179.3C332.86 229.711 282.254 312.609 225.975 293.034C172.655 273.46 181.758 292.863 106.967 313.742V313.742Z" stroke="url(#paint3_linear_9_364)"/>
<path d="M112.902 301.17C52.4794 318.036 41.615 254.536 61.0653 208.306C71.9296 180.028 42.9298 160.156 54.8504 127.161C68.2029 90.2142 104.215 129.21 124.809 79.5795C146.001 29.3306 234.623 50.5152 235.543 99.3732C236.463 146.816 253.083 133.62 285.232 179.416C317.384 225.213 272.277 299.663 220.862 282.533C173.392 265.405 180.13 282.304 112.902 301.17V301.17Z" stroke="url(#paint4_linear_9_364)"/>
<path d="M119.136 288.601C66.1204 303.467 54.8313 247.117 72.3461 205.949C82.4319 180.296 57.0527 161.824 67.6149 132.591C79.9683 98.4187 111.315 132.765 130.044 89.105C149.518 44.6726 228.912 62.1809 229.701 107.19C230.488 150.431 245.983 138.349 274.095 179.531C302.205 220.714 262.602 286.715 216.049 272.032C174.427 257.351 178.801 271.746 119.136 288.601V288.601Z" stroke="url(#paint5_linear_9_364)"/>
<path d="M125.729 276.029C80.1181 288.898 68.4044 239.7 83.9837 203.592C93.2909 180.565 71.535 163.492 80.7388 138.022C92.0877 106.624 118.771 136.32 135.635 98.6315C153.392 60.0156 223.555 73.8478 224.213 115.008C224.87 154.046 239.24 143.079 263.313 179.647C287.385 216.215 253.281 273.767 211.593 261.533C175.821 249.297 177.83 261.187 125.729 276.029Z" stroke="url(#paint6_linear_9_364)"/>
<path d="M132.338 263.46C94.1348 274.326 81.9964 232.281 95.6429 201.233C104.169 180.833 86.0335 165.16 93.8789 143.452C104.229 114.829 126.246 139.876 141.246 108.157C157.285 75.3584 218.219 85.514 218.747 122.826C219.273 157.661 232.519 147.809 252.552 179.763C272.585 211.717 243.982 260.819 207.156 251.032C177.233 241.245 176.877 250.629 132.338 263.46V263.46Z" stroke="url(#paint7_linear_9_364)"/>
<path d="M138.978 250.888C108.181 259.757 95.6184 224.861 107.329 198.875C115.074 181.101 100.562 166.827 107.049 148.883C116.397 123.034 133.751 143.43 146.883 117.683C161.208 90.7003 212.914 97.18 213.308 130.643C213.7 161.275 225.822 152.538 241.818 179.878C257.811 207.218 234.71 247.872 202.746 240.531C178.673 233.191 175.951 240.071 138.978 250.888Z" stroke="url(#paint8_linear_9_364)"/>
</g>
<defs>
<linearGradient id="paint0_linear_9_364" x1="-86.55" y1="34.494" x2="151.862" y2="191.317" gradientUnits="userSpaceOnUse">
<stop stop-color="#28DB18"/>
<stop offset="1" stop-color="#185ADB" stop-opacity="0"/>
</linearGradient>
<linearGradient id="paint1_linear_9_364" x1="-86.5499" y1="34.494" x2="151.862" y2="191.317" gradientUnits="userSpaceOnUse">
<stop stop-color="#18DB2B"/>
<stop offset="1" stop-color="#18DB2B" stop-opacity="0"/>
</linearGradient>
<linearGradient id="paint2_linear_9_364" x1="-86.55" y1="34.494" x2="151.862" y2="191.317" gradientUnits="userSpaceOnUse">
<stop stop-color="#18DB37"/>
<stop offset="1" stop-color="#3FDB18" stop-opacity="0"/>
</linearGradient>
<linearGradient id="paint3_linear_9_364" x1="-86.55" y1="34.494" x2="151.862" y2="191.317" gradientUnits="userSpaceOnUse">
<stop stop-color="#18DB20"/>
<stop offset="1" stop-color="#18DB2B" stop-opacity="0"/>
</linearGradient>
<linearGradient id="paint4_linear_9_364" x1="-86.5499" y1="34.494" x2="151.862" y2="191.317" gradientUnits="userSpaceOnUse">
<stop stop-color="#1CDB18"/>
<stop offset="1" stop-color="#185ADB" stop-opacity="0"/>
</linearGradient>
<linearGradient id="paint5_linear_9_364" x1="-86.55" y1="34.494" x2="151.862" y2="191.317" gradientUnits="userSpaceOnUse">
<stop stop-color="#28DB18"/>
<stop offset="1" stop-color="#185ADB" stop-opacity="0"/>
</linearGradient>
<linearGradient id="paint6_linear_9_364" x1="-86.5499" y1="34.494" x2="151.862" y2="191.317" gradientUnits="userSpaceOnUse">
<stop stop-color="#18DB2B"/>
<stop offset="1" stop-color="#18DB2B" stop-opacity="0"/>
</linearGradient>
<linearGradient id="paint7_linear_9_364" x1="-86.55" y1="34.494" x2="151.862" y2="191.317" gradientUnits="userSpaceOnUse">
<stop stop-color="#18DB43"/>
<stop offset="1" stop-color="#185ADB" stop-opacity="0"/>
</linearGradient>
<linearGradient id="paint8_linear_9_364" x1="-86.55" y1="34.494" x2="151.862" y2="191.317" gradientUnits="userSpaceOnUse">
<stop stop-color="#18DB20"/>
<stop offset="1" stop-color="#18DB2B" stop-opacity="0"/>
</linearGradient>
</defs>
</svg>
