<svg width="393" height="588" viewBox="0 0 393 588" fill="none" xmlns="http://www.w3.org/2000/svg">
<g clip-path="url(#clip0_9_377)">
<mask id="mask0_9_377" style="mask-type:alpha" maskUnits="userSpaceOnUse" x="-345" y="0" width="1280" height="602">
<path d="M-345 0H935V602H-345V0Z" fill="url(#paint0_linear_9_377)"/>
</mask>
<g mask="url(#mask0_9_377)">
<path d="M1154.56 -344C1115.47 -330.696 1038.37 -272.752 1042.71 -147.403C1048.13 9.28356 1166.39 107.336 1195.94 255.153C1217.76 364.253 1214.67 637.507 1081.63 752.312M1101.31 -311.663C1062.23 -298.36 985.125 -240.416 989.462 -115.067C994.885 41.6196 1113.14 139.672 1142.7 287.49C1164.52 396.589 1161.43 669.844 1028.39 784.648M1047.26 -280.692C1008.16 -267.388 931.071 -209.444 935.409 -84.0942C940.831 72.592 1059.08 170.644 1088.64 318.461C1110.47 427.562 1107.36 700.815 974.333 815.62M992.449 -251.074C953.356 -237.771 876.262 -179.827 880.6 -54.4773C886.022 102.209 1004.27 200.261 1033.84 348.079C1055.66 457.179 1052.56 730.433 919.525 845.237M936.893 -222.872C897.809 -209.568 820.707 -151.624 825.045 -26.2747C830.467 130.412 948.724 228.464 978.28 376.281C1000.1 485.381 997.009 758.636 863.969 873.44M880.6 -196.188C841.507 -182.884 764.413 -124.94 768.751 0.408884C774.173 157.095 892.422 255.148 921.987 402.965C943.809 512.065 940.716 785.319 807.676 900.124M823.542 -171.169C784.458 -157.865 707.356 -99.9209 711.693 25.4284C717.116 182.115 835.373 280.167 864.929 427.984C886.751 537.084 883.658 810.339 750.618 925.147M765.711 -148.003C726.618 -134.699 649.525 -76.7547 653.862 48.5947C659.285 205.281 777.533 303.333 807.098 451.15C828.92 560.251 825.827 833.505 692.787 948.311M707.08 -126.932C667.996 -113.628 590.902 -55.6836 595.231 69.6658C600.653 226.352 718.911 324.404 748.476 472.221C770.289 581.322 767.196 854.576 634.156 969.378M647.649 -108.261C608.556 -94.9573 531.461 -37.0133 535.797 88.336C541.218 245.022 659.471 343.075 689.036 490.892C710.858 599.992 707.756 873.246 574.724 988.053M587.409 -92.3778C548.316 -79.0747 471.221 -21.1307 475.557 104.219C480.976 260.905 599.231 358.957 628.796 506.775C650.618 615.875 647.516 889.129 514.482 1003.94M526.393 -79.7751C487.303 -66.4711 410.208 -8.52712 414.544 116.822C419.964 273.508 538.218 371.561 567.782 519.378C589.605 628.478 586.502 901.733 453.469 1016.53M464.703 -71.0755C425.614 -57.7707 348.519 0.173342 352.855 125.523C358.275 282.209 476.529 380.261 506.093 528.078C527.912 637.179 524.816 910.436 391.78 1025.24M402.533 -67.0613C363.444 -53.7573 286.349 4.18669 290.685 129.536C296.104 286.222 414.358 384.275 443.922 532.092C465.741 641.192 462.645 914.444 329.61 1029.25M340.254 -68.6933C301.165 -55.3911 224.069 2.5529 228.405 127.902C233.826 284.588 352.079 382.641 381.643 530.458C403.463 639.558 400.366 912.808 267.331 1027.62M278.522 -77.0853C239.432 -63.7813 162.337 -5.83644 166.673 119.511C172.093 276.198 290.347 374.25 319.91 522.068C341.731 631.167 338.634 904.426 205.598 1019.23M218.385 -93.3644C179.296 -80.0596 102.201 -22.1156 106.537 103.234C111.956 259.92 230.211 357.972 259.774 505.789C281.594 614.89 278.498 888.144 145.462 1002.95M150.988 -122.779C111.899 -109.476 34.8036 -51.5307 39.1396 73.8178C44.5592 230.505 162.813 328.556 192.377 476.374C214.196 585.475 211.1 858.728 78.0649 973.529M93.2427 -146.164C54.1529 -132.86 -22.9413 -74.9156 -18.6062 50.4338C-13.1858 207.12 105.068 305.172 134.632 452.989C156.452 562.09 153.355 835.344 20.3192 950.151M33.7636 -164.697C-5.32529 -151.394 -82.4204 -93.4498 -78.0844 31.8996C-72.6648 188.586 45.5894 286.638 75.1529 434.456C96.9734 543.556 93.8765 816.81 -39.159 931.618M-27.0408 -178.266C-66.1306 -164.963 -143.226 -107.018 -138.89 18.3315C-133.469 175.018 -15.216 273.069 14.3476 420.887C36.168 529.988 33.0712 803.241 -99.9644 918.044M-88.7439 -186.871C-127.834 -173.568 -204.929 -115.623 -200.593 9.72621C-195.172 166.412 -76.919 264.464 -47.3555 412.282C-25.535 521.382 -28.632 794.636 -161.668 909.44M-150.931 -190.621C-190.02 -177.317 -267.116 -119.373 -262.78 5.976C-257.359 162.662 -139.106 260.715 -109.542 408.532C-87.7217 517.632 -90.8186 790.886 -223.854 905.689M-213.225 -189.708C-252.314 -176.404 -329.409 -118.46 -325.073 6.88889C-319.652 163.575 -201.399 261.628 -171.836 409.444C-150.015 518.545 -153.112 791.799 -286.148 906.604M-275.296 -184.378C-314.386 -171.075 -391.48 -113.13 -387.145 12.2196C-381.724 168.906 -263.47 266.957 -233.907 414.775C-212.087 523.876 -215.183 797.129 -348.219 911.938M-336.871 -174.903C-375.961 -161.6 -453.055 -103.655 -448.719 21.6933C-443.3 178.38 -325.045 276.432 -295.482 424.25C-273.662 533.349 -276.758 806.604 -409.795 921.404M-397.725 -161.558C-436.814 -148.254 -513.909 -90.3102 -509.573 35.0391C-504.154 191.725 -385.9 289.778 -356.336 437.595C-334.516 546.695 -337.613 819.949 -470.648 934.756M-457.671 -144.593C-496.761 -131.289 -573.856 -73.3449 -569.52 52.0045C-564.1 208.691 -445.846 306.743 -416.283 454.56C-394.462 563.66 -397.559 836.915 -530.595 951.716M-516.532 -124.22C-555.621 -110.917 -632.716 -52.9724 -628.38 72.376C-622.96 229.063 -504.706 327.115 -475.143 474.932C-453.323 584.033 -456.42 857.286 -589.455 972.089" stroke="url(#paint1_radial_9_377)" stroke-width="2"/>
</g>
</g>
<defs>
<linearGradient id="paint0_linear_9_377" x1="295" y1="0" x2="295" y2="602" gradientUnits="userSpaceOnUse">
<stop stop-color="#EFE4FF"/>
<stop offset="1" stop-color="#EFE4FF" stop-opacity="0"/>
</linearGradient>
<radialGradient id="paint1_radial_9_377" cx="0" cy="0" r="1" gradientUnits="userSpaceOnUse" gradientTransform="translate(261.222 392.444) rotate(179.393) scale(949.775 397.953)">
<stop stop-color="#05FF3C" stop-opacity="0"/>
<stop offset="0.5625" stop-color="#18FF59" stop-opacity="0.25"/>
<stop offset="1" stop-color="#F3A53D" stop-opacity="0"/>
</radialGradient>
<clipPath id="clip0_9_377">
<rect width="1280" height="588" fill="white" transform="translate(-345)"/>
</clipPath>
</defs>
</svg>
